<mxfile host="app.diagrams.net" modified="2021-04-05T14:50:50.686Z" agent="5.0 (Windows NT 10.0; Win64; x64) AppleWebKit/537.36 (KHTML, like Gecko) Chrome/71.0.3578.98 Safari/537.36" etag="wHNnnZSYGEZ6qwz8mYPY" version="14.5.3" type="github">
  <diagram id="t1n8sm9UBzz5K-oiU6O6" name="Page-1">
    <mxGraphModel dx="782" dy="469" grid="0" gridSize="10" guides="1" tooltips="1" connect="1" arrows="1" fold="1" page="1" pageScale="1" pageWidth="827" pageHeight="1169" math="0" shadow="0">
      <root>
        <mxCell id="0" />
        <mxCell id="1" parent="0" />
        <mxCell id="qlEDuVZwkhyLDb3LtV4--2" value="&amp;nbsp; &amp;nbsp;padding" style="text;whiteSpace=wrap;html=1;" parent="1" vertex="1">
          <mxGeometry x="343.5" y="230" width="70" height="30" as="geometry" />
        </mxCell>
        <mxCell id="qlEDuVZwkhyLDb3LtV4--8" value="" style="shape=table;html=1;whiteSpace=wrap;startSize=0;container=1;collapsible=0;childLayout=tableLayout;" parent="1" vertex="1">
          <mxGeometry x="190" y="220" width="120" height="80" as="geometry" />
        </mxCell>
        <mxCell id="qlEDuVZwkhyLDb3LtV4--9" value="" style="shape=partialRectangle;html=1;whiteSpace=wrap;collapsible=0;dropTarget=0;pointerEvents=0;fillColor=none;top=0;left=0;bottom=0;right=0;points=[[0,0.5],[1,0.5]];portConstraint=eastwest;" parent="qlEDuVZwkhyLDb3LtV4--8" vertex="1">
          <mxGeometry width="120" height="40" as="geometry" />
        </mxCell>
        <mxCell id="qlEDuVZwkhyLDb3LtV4--10" value="1" style="shape=partialRectangle;html=1;whiteSpace=wrap;connectable=0;overflow=hidden;fillColor=none;top=0;left=0;bottom=0;right=0;" parent="qlEDuVZwkhyLDb3LtV4--9" vertex="1">
          <mxGeometry width="60" height="40" as="geometry" />
        </mxCell>
        <mxCell id="qlEDuVZwkhyLDb3LtV4--11" value="2" style="shape=partialRectangle;html=1;whiteSpace=wrap;connectable=0;overflow=hidden;fillColor=none;top=0;left=0;bottom=0;right=0;" parent="qlEDuVZwkhyLDb3LtV4--9" vertex="1">
          <mxGeometry x="60" width="60" height="40" as="geometry" />
        </mxCell>
        <mxCell id="qlEDuVZwkhyLDb3LtV4--12" value="" style="shape=partialRectangle;html=1;whiteSpace=wrap;collapsible=0;dropTarget=0;pointerEvents=0;fillColor=none;top=0;left=0;bottom=0;right=0;points=[[0,0.5],[1,0.5]];portConstraint=eastwest;" parent="qlEDuVZwkhyLDb3LtV4--8" vertex="1">
          <mxGeometry y="40" width="120" height="40" as="geometry" />
        </mxCell>
        <mxCell id="qlEDuVZwkhyLDb3LtV4--13" value="3" style="shape=partialRectangle;html=1;whiteSpace=wrap;connectable=0;overflow=hidden;fillColor=none;top=0;left=0;bottom=0;right=0;" parent="qlEDuVZwkhyLDb3LtV4--12" vertex="1">
          <mxGeometry width="60" height="40" as="geometry" />
        </mxCell>
        <mxCell id="qlEDuVZwkhyLDb3LtV4--14" value="4" style="shape=partialRectangle;html=1;whiteSpace=wrap;connectable=0;overflow=hidden;fillColor=none;top=0;left=0;bottom=0;right=0;" parent="qlEDuVZwkhyLDb3LtV4--12" vertex="1">
          <mxGeometry x="60" width="60" height="40" as="geometry" />
        </mxCell>
        <mxCell id="qlEDuVZwkhyLDb3LtV4--15" value="" style="endArrow=classic;html=1;" parent="1" edge="1">
          <mxGeometry width="50" height="50" relative="1" as="geometry">
            <mxPoint x="320" y="259.5" as="sourcePoint" />
            <mxPoint x="440" y="260" as="targetPoint" />
            <Array as="points" />
          </mxGeometry>
        </mxCell>
        <mxCell id="qlEDuVZwkhyLDb3LtV4--16" value="" style="shape=table;html=1;whiteSpace=wrap;startSize=0;container=1;collapsible=0;childLayout=tableLayout;" parent="1" vertex="1">
          <mxGeometry x="450" y="200" width="180" height="120" as="geometry" />
        </mxCell>
        <mxCell id="qlEDuVZwkhyLDb3LtV4--17" value="" style="shape=partialRectangle;html=1;whiteSpace=wrap;collapsible=0;dropTarget=0;pointerEvents=0;fillColor=none;top=0;left=0;bottom=0;right=0;points=[[0,0.5],[1,0.5]];portConstraint=eastwest;" parent="qlEDuVZwkhyLDb3LtV4--16" vertex="1">
          <mxGeometry width="180" height="40" as="geometry" />
        </mxCell>
        <mxCell id="qlEDuVZwkhyLDb3LtV4--18" value="1" style="shape=partialRectangle;html=1;whiteSpace=wrap;connectable=0;overflow=hidden;fillColor=none;top=0;left=0;bottom=0;right=0;" parent="qlEDuVZwkhyLDb3LtV4--17" vertex="1">
          <mxGeometry width="60" height="40" as="geometry" />
        </mxCell>
        <mxCell id="qlEDuVZwkhyLDb3LtV4--19" value="0" style="shape=partialRectangle;html=1;whiteSpace=wrap;connectable=0;overflow=hidden;fillColor=none;top=0;left=0;bottom=0;right=0;" parent="qlEDuVZwkhyLDb3LtV4--17" vertex="1">
          <mxGeometry x="60" width="60" height="40" as="geometry" />
        </mxCell>
        <mxCell id="qlEDuVZwkhyLDb3LtV4--20" value="2" style="shape=partialRectangle;html=1;whiteSpace=wrap;connectable=0;overflow=hidden;fillColor=none;top=0;left=0;bottom=0;right=0;" parent="qlEDuVZwkhyLDb3LtV4--17" vertex="1">
          <mxGeometry x="120" width="60" height="40" as="geometry" />
        </mxCell>
        <mxCell id="qlEDuVZwkhyLDb3LtV4--21" value="" style="shape=partialRectangle;html=1;whiteSpace=wrap;collapsible=0;dropTarget=0;pointerEvents=0;fillColor=none;top=0;left=0;bottom=0;right=0;points=[[0,0.5],[1,0.5]];portConstraint=eastwest;" parent="qlEDuVZwkhyLDb3LtV4--16" vertex="1">
          <mxGeometry y="40" width="180" height="40" as="geometry" />
        </mxCell>
        <mxCell id="qlEDuVZwkhyLDb3LtV4--22" value="0" style="shape=partialRectangle;html=1;whiteSpace=wrap;connectable=0;overflow=hidden;fillColor=none;top=0;left=0;bottom=0;right=0;" parent="qlEDuVZwkhyLDb3LtV4--21" vertex="1">
          <mxGeometry width="60" height="40" as="geometry" />
        </mxCell>
        <mxCell id="qlEDuVZwkhyLDb3LtV4--23" value="0" style="shape=partialRectangle;html=1;whiteSpace=wrap;connectable=0;overflow=hidden;fillColor=none;top=0;left=0;bottom=0;right=0;" parent="qlEDuVZwkhyLDb3LtV4--21" vertex="1">
          <mxGeometry x="60" width="60" height="40" as="geometry" />
        </mxCell>
        <mxCell id="qlEDuVZwkhyLDb3LtV4--24" value="0" style="shape=partialRectangle;html=1;whiteSpace=wrap;connectable=0;overflow=hidden;fillColor=none;top=0;left=0;bottom=0;right=0;" parent="qlEDuVZwkhyLDb3LtV4--21" vertex="1">
          <mxGeometry x="120" width="60" height="40" as="geometry" />
        </mxCell>
        <mxCell id="qlEDuVZwkhyLDb3LtV4--25" value="" style="shape=partialRectangle;html=1;whiteSpace=wrap;collapsible=0;dropTarget=0;pointerEvents=0;fillColor=none;top=0;left=0;bottom=0;right=0;points=[[0,0.5],[1,0.5]];portConstraint=eastwest;" parent="qlEDuVZwkhyLDb3LtV4--16" vertex="1">
          <mxGeometry y="80" width="180" height="40" as="geometry" />
        </mxCell>
        <mxCell id="qlEDuVZwkhyLDb3LtV4--26" value="3" style="shape=partialRectangle;html=1;whiteSpace=wrap;connectable=0;overflow=hidden;fillColor=none;top=0;left=0;bottom=0;right=0;" parent="qlEDuVZwkhyLDb3LtV4--25" vertex="1">
          <mxGeometry width="60" height="40" as="geometry" />
        </mxCell>
        <mxCell id="qlEDuVZwkhyLDb3LtV4--27" value="0" style="shape=partialRectangle;html=1;whiteSpace=wrap;connectable=0;overflow=hidden;fillColor=none;top=0;left=0;bottom=0;right=0;" parent="qlEDuVZwkhyLDb3LtV4--25" vertex="1">
          <mxGeometry x="60" width="60" height="40" as="geometry" />
        </mxCell>
        <mxCell id="qlEDuVZwkhyLDb3LtV4--28" value="4" style="shape=partialRectangle;html=1;whiteSpace=wrap;connectable=0;overflow=hidden;fillColor=none;top=0;left=0;bottom=0;right=0;" parent="qlEDuVZwkhyLDb3LtV4--25" vertex="1">
          <mxGeometry x="120" width="60" height="40" as="geometry" />
        </mxCell>
        <mxCell id="qlEDuVZwkhyLDb3LtV4--29" value="" style="endArrow=classic;html=1;" parent="1" edge="1">
          <mxGeometry width="50" height="50" relative="1" as="geometry">
            <mxPoint x="539.5" y="332" as="sourcePoint" />
            <mxPoint x="539.5" y="442" as="targetPoint" />
          </mxGeometry>
        </mxCell>
        <mxCell id="qlEDuVZwkhyLDb3LtV4--30" value="&amp;nbsp; &amp;nbsp;kernel:2*2&lt;br&gt;&amp;nbsp; &amp;nbsp;stride:1" style="text;whiteSpace=wrap;html=1;" parent="1" vertex="1">
          <mxGeometry x="560" y="360" width="70" height="40" as="geometry" />
        </mxCell>
        <mxCell id="qlEDuVZwkhyLDb3LtV4--31" value="" style="shape=table;html=1;whiteSpace=wrap;startSize=0;container=1;collapsible=0;childLayout=tableLayout;" parent="1" vertex="1">
          <mxGeometry x="450" y="352" width="64" height="67" as="geometry" />
        </mxCell>
        <mxCell id="qlEDuVZwkhyLDb3LtV4--32" value="" style="shape=partialRectangle;html=1;whiteSpace=wrap;collapsible=0;dropTarget=0;pointerEvents=0;fillColor=none;top=0;left=0;bottom=0;right=0;points=[[0,0.5],[1,0.5]];portConstraint=eastwest;" parent="qlEDuVZwkhyLDb3LtV4--31" vertex="1">
          <mxGeometry width="64" height="34" as="geometry" />
        </mxCell>
        <mxCell id="qlEDuVZwkhyLDb3LtV4--33" value="1" style="shape=partialRectangle;html=1;whiteSpace=wrap;connectable=0;overflow=hidden;fillColor=none;top=0;left=0;bottom=0;right=0;" parent="qlEDuVZwkhyLDb3LtV4--32" vertex="1">
          <mxGeometry width="32" height="34" as="geometry" />
        </mxCell>
        <mxCell id="qlEDuVZwkhyLDb3LtV4--34" value="1" style="shape=partialRectangle;html=1;whiteSpace=wrap;connectable=0;overflow=hidden;fillColor=none;top=0;left=0;bottom=0;right=0;" parent="qlEDuVZwkhyLDb3LtV4--32" vertex="1">
          <mxGeometry x="32" width="32" height="34" as="geometry" />
        </mxCell>
        <mxCell id="qlEDuVZwkhyLDb3LtV4--35" value="" style="shape=partialRectangle;html=1;whiteSpace=wrap;collapsible=0;dropTarget=0;pointerEvents=0;fillColor=none;top=0;left=0;bottom=0;right=0;points=[[0,0.5],[1,0.5]];portConstraint=eastwest;" parent="qlEDuVZwkhyLDb3LtV4--31" vertex="1">
          <mxGeometry y="34" width="64" height="33" as="geometry" />
        </mxCell>
        <mxCell id="qlEDuVZwkhyLDb3LtV4--36" value="1" style="shape=partialRectangle;html=1;whiteSpace=wrap;connectable=0;overflow=hidden;fillColor=none;top=0;left=0;bottom=0;right=0;" parent="qlEDuVZwkhyLDb3LtV4--35" vertex="1">
          <mxGeometry width="32" height="33" as="geometry" />
        </mxCell>
        <mxCell id="qlEDuVZwkhyLDb3LtV4--37" value="1" style="shape=partialRectangle;html=1;whiteSpace=wrap;connectable=0;overflow=hidden;fillColor=none;top=0;left=0;bottom=0;right=0;" parent="qlEDuVZwkhyLDb3LtV4--35" vertex="1">
          <mxGeometry x="32" width="32" height="33" as="geometry" />
        </mxCell>
        <mxCell id="qlEDuVZwkhyLDb3LtV4--39" value="" style="shape=table;html=1;whiteSpace=wrap;startSize=0;container=1;collapsible=0;childLayout=tableLayout;" parent="1" vertex="1">
          <mxGeometry x="440" y="454" width="205" height="143" as="geometry" />
        </mxCell>
        <mxCell id="qlEDuVZwkhyLDb3LtV4--40" value="" style="shape=partialRectangle;html=1;whiteSpace=wrap;collapsible=0;dropTarget=0;pointerEvents=0;fillColor=none;top=0;left=0;bottom=0;right=0;points=[[0,0.5],[1,0.5]];portConstraint=eastwest;" parent="qlEDuVZwkhyLDb3LtV4--39" vertex="1">
          <mxGeometry width="205" height="36" as="geometry" />
        </mxCell>
        <mxCell id="qlEDuVZwkhyLDb3LtV4--41" value="1" style="shape=partialRectangle;html=1;whiteSpace=wrap;connectable=0;overflow=hidden;fillColor=none;top=0;left=0;bottom=0;right=0;" parent="qlEDuVZwkhyLDb3LtV4--40" vertex="1">
          <mxGeometry width="51" height="36" as="geometry" />
        </mxCell>
        <mxCell id="qlEDuVZwkhyLDb3LtV4--42" value="1" style="shape=partialRectangle;html=1;whiteSpace=wrap;connectable=0;overflow=hidden;fillColor=none;top=0;left=0;bottom=0;right=0;" parent="qlEDuVZwkhyLDb3LtV4--40" vertex="1">
          <mxGeometry x="51" width="52" height="36" as="geometry" />
        </mxCell>
        <mxCell id="qlEDuVZwkhyLDb3LtV4--43" value="2" style="shape=partialRectangle;html=1;whiteSpace=wrap;connectable=0;overflow=hidden;fillColor=none;top=0;left=0;bottom=0;right=0;" parent="qlEDuVZwkhyLDb3LtV4--40" vertex="1">
          <mxGeometry x="103" width="51" height="36" as="geometry" />
        </mxCell>
        <mxCell id="qlEDuVZwkhyLDb3LtV4--44" value="2" style="shape=partialRectangle;html=1;whiteSpace=wrap;connectable=0;overflow=hidden;fillColor=none;top=0;left=0;bottom=0;right=0;" parent="qlEDuVZwkhyLDb3LtV4--40" vertex="1">
          <mxGeometry x="154" width="51" height="36" as="geometry" />
        </mxCell>
        <mxCell id="qlEDuVZwkhyLDb3LtV4--45" value="" style="shape=partialRectangle;html=1;whiteSpace=wrap;collapsible=0;dropTarget=0;pointerEvents=0;fillColor=none;top=0;left=0;bottom=0;right=0;points=[[0,0.5],[1,0.5]];portConstraint=eastwest;" parent="qlEDuVZwkhyLDb3LtV4--39" vertex="1">
          <mxGeometry y="36" width="205" height="36" as="geometry" />
        </mxCell>
        <mxCell id="qlEDuVZwkhyLDb3LtV4--46" value="1" style="shape=partialRectangle;html=1;whiteSpace=wrap;connectable=0;overflow=hidden;fillColor=none;top=0;left=0;bottom=0;right=0;" parent="qlEDuVZwkhyLDb3LtV4--45" vertex="1">
          <mxGeometry width="51" height="36" as="geometry" />
        </mxCell>
        <mxCell id="qlEDuVZwkhyLDb3LtV4--47" value="1" style="shape=partialRectangle;html=1;whiteSpace=wrap;connectable=0;overflow=hidden;fillColor=none;top=0;left=0;bottom=0;right=0;" parent="qlEDuVZwkhyLDb3LtV4--45" vertex="1">
          <mxGeometry x="51" width="52" height="36" as="geometry" />
        </mxCell>
        <mxCell id="qlEDuVZwkhyLDb3LtV4--48" value="2" style="shape=partialRectangle;html=1;whiteSpace=wrap;connectable=0;overflow=hidden;fillColor=none;top=0;left=0;bottom=0;right=0;" parent="qlEDuVZwkhyLDb3LtV4--45" vertex="1">
          <mxGeometry x="103" width="51" height="36" as="geometry" />
        </mxCell>
        <mxCell id="qlEDuVZwkhyLDb3LtV4--49" value="2" style="shape=partialRectangle;html=1;whiteSpace=wrap;connectable=0;overflow=hidden;fillColor=none;top=0;left=0;bottom=0;right=0;" parent="qlEDuVZwkhyLDb3LtV4--45" vertex="1">
          <mxGeometry x="154" width="51" height="36" as="geometry" />
        </mxCell>
        <mxCell id="qlEDuVZwkhyLDb3LtV4--50" value="" style="shape=partialRectangle;html=1;whiteSpace=wrap;collapsible=0;dropTarget=0;pointerEvents=0;fillColor=none;top=0;left=0;bottom=0;right=0;points=[[0,0.5],[1,0.5]];portConstraint=eastwest;" parent="qlEDuVZwkhyLDb3LtV4--39" vertex="1">
          <mxGeometry y="72" width="205" height="35" as="geometry" />
        </mxCell>
        <mxCell id="qlEDuVZwkhyLDb3LtV4--51" value="3" style="shape=partialRectangle;html=1;whiteSpace=wrap;connectable=0;overflow=hidden;fillColor=none;top=0;left=0;bottom=0;right=0;" parent="qlEDuVZwkhyLDb3LtV4--50" vertex="1">
          <mxGeometry width="51" height="35" as="geometry" />
        </mxCell>
        <mxCell id="qlEDuVZwkhyLDb3LtV4--52" value="3" style="shape=partialRectangle;html=1;whiteSpace=wrap;connectable=0;overflow=hidden;fillColor=none;top=0;left=0;bottom=0;right=0;" parent="qlEDuVZwkhyLDb3LtV4--50" vertex="1">
          <mxGeometry x="51" width="52" height="35" as="geometry" />
        </mxCell>
        <mxCell id="qlEDuVZwkhyLDb3LtV4--53" value="4" style="shape=partialRectangle;html=1;whiteSpace=wrap;connectable=0;overflow=hidden;fillColor=none;top=0;left=0;bottom=0;right=0;" parent="qlEDuVZwkhyLDb3LtV4--50" vertex="1">
          <mxGeometry x="103" width="51" height="35" as="geometry" />
        </mxCell>
        <mxCell id="qlEDuVZwkhyLDb3LtV4--54" value="4" style="shape=partialRectangle;html=1;whiteSpace=wrap;connectable=0;overflow=hidden;fillColor=none;top=0;left=0;bottom=0;right=0;" parent="qlEDuVZwkhyLDb3LtV4--50" vertex="1">
          <mxGeometry x="154" width="51" height="35" as="geometry" />
        </mxCell>
        <mxCell id="qlEDuVZwkhyLDb3LtV4--55" value="" style="shape=partialRectangle;html=1;whiteSpace=wrap;collapsible=0;dropTarget=0;pointerEvents=0;fillColor=none;top=0;left=0;bottom=0;right=0;points=[[0,0.5],[1,0.5]];portConstraint=eastwest;" parent="qlEDuVZwkhyLDb3LtV4--39" vertex="1">
          <mxGeometry y="107" width="205" height="36" as="geometry" />
        </mxCell>
        <mxCell id="qlEDuVZwkhyLDb3LtV4--56" value="3" style="shape=partialRectangle;html=1;whiteSpace=wrap;connectable=0;overflow=hidden;fillColor=none;top=0;left=0;bottom=0;right=0;" parent="qlEDuVZwkhyLDb3LtV4--55" vertex="1">
          <mxGeometry width="51" height="36" as="geometry" />
        </mxCell>
        <mxCell id="qlEDuVZwkhyLDb3LtV4--57" value="3" style="shape=partialRectangle;html=1;whiteSpace=wrap;connectable=0;overflow=hidden;fillColor=none;top=0;left=0;bottom=0;right=0;" parent="qlEDuVZwkhyLDb3LtV4--55" vertex="1">
          <mxGeometry x="51" width="52" height="36" as="geometry" />
        </mxCell>
        <mxCell id="qlEDuVZwkhyLDb3LtV4--58" value="4" style="shape=partialRectangle;html=1;whiteSpace=wrap;connectable=0;overflow=hidden;fillColor=none;top=0;left=0;bottom=0;right=0;" parent="qlEDuVZwkhyLDb3LtV4--55" vertex="1">
          <mxGeometry x="103" width="51" height="36" as="geometry" />
        </mxCell>
        <mxCell id="qlEDuVZwkhyLDb3LtV4--59" value="4" style="shape=partialRectangle;html=1;whiteSpace=wrap;connectable=0;overflow=hidden;fillColor=none;top=0;left=0;bottom=0;right=0;" parent="qlEDuVZwkhyLDb3LtV4--55" vertex="1">
          <mxGeometry x="154" width="51" height="36" as="geometry" />
        </mxCell>
        <mxCell id="qlEDuVZwkhyLDb3LtV4--60" value="该卷积计算过程需要进行padding，计算公式为：&lt;br&gt;O&lt;sub&gt;h&lt;/sub&gt;=(i&lt;sub&gt;h&lt;/sub&gt;-k&lt;sub&gt;h&lt;/sub&gt;+2p) // s + 1&lt;br&gt;O&lt;sub&gt;h&lt;/sub&gt;为输出特征图的高度&lt;br&gt;i&lt;sub&gt;h&lt;/sub&gt;为输出特征图的高度&lt;br&gt;p为padding的数量&lt;br&gt;s为步长" style="text;html=1;align=center;verticalAlign=middle;resizable=0;points=[];autosize=1;" parent="1" vertex="1">
          <mxGeometry x="153" y="343" width="269" height="96" as="geometry" />
        </mxCell>
      </root>
    </mxGraphModel>
  </diagram>
</mxfile>
